<?xml version="1.0" encoding="UTF-8" standalone="no"?>
<!-- Created with Inkscape (http://www.inkscape.org/) -->

<svg
   xmlns:dc="http://purl.org/dc/elements/1.1/"
   xmlns:cc="http://creativecommons.org/ns#"
   xmlns:rdf="http://www.w3.org/1999/02/22-rdf-syntax-ns#"
   xmlns:svg="http://www.w3.org/2000/svg"
   xmlns="http://www.w3.org/2000/svg"
   xmlns:xlink="http://www.w3.org/1999/xlink"
   xmlns:sodipodi="http://sodipodi.sourceforge.net/DTD/sodipodi-0.dtd"
   xmlns:inkscape="http://www.inkscape.org/namespaces/inkscape"
   width="97.512962mm"
   height="69.259758mm"
   viewBox="0 0 97.512961 69.259758"
   version="1.1"
   id="svg5664"
   inkscape:export-filename="C:\Nioh\wektory\rybki\fisz2.png"
   inkscape:export-xdpi="103.83519"
   inkscape:export-ydpi="103.83519"
   inkscape:version="0.92.4 (5da689c313, 2019-01-14)"
   sodipodi:docname="fiszka2.svg">
  <defs
     id="defs5658">
    <linearGradient
       inkscape:collect="always"
       xlink:href="#linearGradient6508"
       id="linearGradient6502"
       x1="-2358.9492"
       y1="684.04761"
       x2="-2456.8452"
       y2="691.22913"
       gradientUnits="userSpaceOnUse"
       gradientTransform="matrix(1.1596348,0,0,1.1596348,2705.5148,-509.20597)" />
    <linearGradient
       id="linearGradient6508"
       inkscape:collect="always">
      <stop
         id="stop6504"
         offset="0"
         style="stop-color:#dcec18;stop-opacity:1" />
      <stop
         id="stop6506"
         offset="1"
         style="stop-color:#9aec18;stop-opacity:1" />
    </linearGradient>
    <linearGradient
       inkscape:collect="always"
       xlink:href="#linearGradient1067"
       id="linearGradient6478"
       gradientUnits="userSpaceOnUse"
       gradientTransform="matrix(1.2200645,0,0,1.2200645,-742.24866,16.758747)"
       x1="553.22937"
       y1="93.771996"
       x2="503.46429"
       y2="79.663696" />
    <linearGradient
       inkscape:collect="always"
       id="linearGradient1067">
      <stop
         style="stop-color:#c7ec18;stop-opacity:1"
         offset="0"
         id="stop1063" />
      <stop
         style="stop-color:#94ec18;stop-opacity:1"
         offset="1"
         id="stop1065" />
    </linearGradient>
    <linearGradient
       inkscape:collect="always"
       xlink:href="#linearGradient6594"
       id="linearGradient6596"
       x1="-8038.5713"
       y1="1285.3768"
       x2="-7900"
       y2="1521.0911"
       gradientUnits="userSpaceOnUse"
       gradientTransform="matrix(0.30682004,0,0,0.30682004,2412.7208,-209.39896)" />
    <linearGradient
       inkscape:collect="always"
       id="linearGradient6594">
      <stop
         style="stop-color:#dcec18;stop-opacity:1"
         offset="0"
         id="stop6590" />
      <stop
         style="stop-color:#94ec18;stop-opacity:1"
         offset="1"
         id="stop6592" />
    </linearGradient>
    <linearGradient
       inkscape:collect="always"
       xlink:href="#linearGradient1091"
       id="linearGradient6482"
       gradientUnits="userSpaceOnUse"
       gradientTransform="matrix(0.38859984,0,0,0.38859984,-267.32239,144.37441)"
       x1="618.46167"
       y1="185.81587"
       x2="634.49786"
       y2="220.02637" />
    <linearGradient
       inkscape:collect="always"
       id="linearGradient1091">
      <stop
         style="stop-color:#dcec18;stop-opacity:1"
         offset="0"
         id="stop1087" />
      <stop
         style="stop-color:#9eec18;stop-opacity:1"
         offset="1"
         id="stop1089" />
    </linearGradient>
    <linearGradient
       inkscape:collect="always"
       xlink:href="#linearGradient1128"
       id="linearGradient6484"
       gradientUnits="userSpaceOnUse"
       gradientTransform="matrix(1.2200645,0,0,1.2200645,-741.90286,16.412875)"
       x1="490.27838"
       y1="168.61221"
       x2="433.72769"
       y2="179.26041" />
    <linearGradient
       inkscape:collect="always"
       id="linearGradient1128">
      <stop
         id="stop1126"
         offset="0"
         style="stop-color:#9eec18;stop-opacity:0;" />
      <stop
         id="stop1124"
         offset="1"
         style="stop-color:#9eec18;stop-opacity:1;" />
    </linearGradient>
    <linearGradient
       inkscape:collect="always"
       xlink:href="#linearGradient6581"
       id="linearGradient6583"
       x1="-2363.7815"
       y1="597.7887"
       x2="-2402.8298"
       y2="538.43292"
       gradientUnits="userSpaceOnUse"
       gradientTransform="matrix(1.1596348,0,0,1.1596348,2705.5148,-509.20597)" />
    <linearGradient
       inkscape:collect="always"
       id="linearGradient6581">
      <stop
         style="stop-color:#ecf484;stop-opacity:1"
         offset="0"
         id="stop6577" />
      <stop
         style="stop-color:#e6f15b;stop-opacity:0;"
         offset="1"
         id="stop6579" />
    </linearGradient>
    <linearGradient
       inkscape:collect="always"
       xlink:href="#linearGradient6633"
       id="linearGradient6621"
       x1="-8365.6289"
       y1="1428.1505"
       x2="-8366.2871"
       y2="1289.8463"
       gradientUnits="userSpaceOnUse"
       gradientTransform="matrix(0.30682004,0,0,0.30682004,2412.7208,-209.39896)" />
    <linearGradient
       id="linearGradient6633"
       inkscape:collect="always">
      <stop
         style="stop-color:#e6f15b;stop-opacity:0;"
         offset="0"
         id="stop6631" />
      <stop
         style="stop-color:#ecf484;stop-opacity:1"
         offset="1"
         id="stop6629" />
    </linearGradient>
    <linearGradient
       inkscape:collect="always"
       xlink:href="#linearGradient6668"
       id="linearGradient6670"
       x1="-2207.8533"
       y1="372.50073"
       x2="-2232.8582"
       y2="378.2579"
       gradientUnits="userSpaceOnUse"
       gradientTransform="matrix(1.1596348,0,0,1.1596348,2412.7208,-209.39896)" />
    <linearGradient
       inkscape:collect="always"
       id="linearGradient6668">
      <stop
         style="stop-color:#8ad211;stop-opacity:1"
         offset="0"
         id="stop6664" />
      <stop
         style="stop-color:#b4ec18;stop-opacity:1"
         offset="1"
         id="stop6666" />
    </linearGradient>
  </defs>
  <sodipodi:namedview
     id="base"
     pagecolor="#ffffff"
     bordercolor="#666666"
     borderopacity="1.0"
     inkscape:pageopacity="0.0"
     inkscape:pageshadow="2"
     inkscape:zoom="0.49497475"
     inkscape:cx="64.761856"
     inkscape:cy="147.5312"
     inkscape:document-units="mm"
     inkscape:current-layer="layer1"
     showgrid="false"
     showborder="true"
     inkscape:window-width="1366"
     inkscape:window-height="705"
     inkscape:window-x="-8"
     inkscape:window-y="-8"
     inkscape:window-maximized="1"
     fit-margin-top="0"
     fit-margin-left="0"
     fit-margin-right="0"
     fit-margin-bottom="0" />
  <metadata
     id="metadata5661">
    <rdf:RDF>
      <cc:Work
         rdf:about="">
        <dc:format>image/svg+xml</dc:format>
        <dc:type
           rdf:resource="http://purl.org/dc/dcmitype/StillImage" />
        <dc:title></dc:title>
      </cc:Work>
    </rdf:RDF>
  </metadata>
  <g
     inkscape:label="Layer 1"
     inkscape:groupmode="layer"
     id="layer1"
     transform="translate(94.113609,-169.38798)">
    <g
       id="g5793"
       transform="matrix(0.31850762,0,0,0.31850762,-30.910538,139.03662)">
      <path
         sodipodi:nodetypes="casscssc"
         inkscape:connector-curvature="0"
         id="path901-8-2"
         d="m -1.3811827,274.77036 c 0,0 -15.3996023,16.44575 -25.4347343,20.86949 -24.480238,10.79154 -57.782398,25.23769 -79.437763,11.45978 -11.59137,-7.37481 -28.3656,-35.26468 -28.99748,-51.99617 -0.44345,-11.74345 3.84708,-21.55371 3.84708,-21.55371 0,0 30.85487,18.68212 47.197025,26.22066 15.803155,7.28985 31.657914,15.99221 48.912932,18.26082 11.25959,1.48034 33.9129403,-3.26087 33.9129403,-3.26087 z"
         style="fill:url(#linearGradient6502);fill-opacity:1;stroke:none;stroke-width:0.30682006px;stroke-linecap:butt;stroke-linejoin:miter;stroke-opacity:1" />
      <path
         sodipodi:nodetypes="cssscsssc"
         inkscape:connector-curvature="0"
         id="path899-3-9"
         d="m 36.607873,123.30337 c 0,0 -22.436962,-21.51506 -38.4781897,-25.434697 C -31.44286,90.642675 -117.10694,99.006402 -136.21772,118.086 c -16.17238,16.14592 -12.60175,47.02703 -10.23204,70.8722 1.09377,11.00542 9.04028,18.26942 9.04028,18.26942 0,0 16.2415,-39.95058 30.53945,-55.22867 14.173289,-15.14472 32.763047,-26.60083 52.173826,-33.91295 12.745198,-4.80118 26.823628,-6.34912 40.43461,-5.86955 17.3438456,0.61108 50.869467,11.08692 50.869467,11.08692 z"
         style="fill:url(#linearGradient6478);fill-opacity:1;stroke:none;stroke-width:0.30682006px;stroke-linecap:butt;stroke-linejoin:miter;stroke-opacity:1" />
      <path
         sodipodi:nodetypes="csaccscc"
         inkscape:connector-curvature="0"
         id="path6495"
         d="m -131.35827,233.57718 c 0.72141,8.68669 16.10107,46.65101 33.853219,56.81775 15.598596,8.93349 47.195513,4.12185 69.757716,-1.52519 9.12447,-2.28375 17.74276,-8.062 25.1755552,-12.74524 0.742978,-0.83185 1.190713,-1.35434 1.190713,-1.35434 0,0 -22.6535822,4.7415 -33.9131722,3.26116 -17.255018,-2.26859 -33.109429,-10.97133 -48.912584,-18.26119 -16.273507,-7.50687 -46.894127,-26.03721 -47.151447,-26.19295 z"
         style="fill:#4ba014;fill-opacity:0.530303;stroke:none;stroke-width:0.30682003px;stroke-linecap:butt;stroke-linejoin:miter;stroke-opacity:1" />
      <path
         sodipodi:nodetypes="aaccccaasccccaa"
         inkscape:connector-curvature="0"
         id="path882-2-8"
         d="m -20.326136,108.72231 c -27.007315,-0.11376 -55.376389,10.5435 -76.067057,27.90175 -20.851507,17.49321 -34.739877,48.94783 -41.016287,70.60356 -22.48821,-7.67958 -55.12938,-16.88893 -57.09543,-15.06233 -11.58382,8.91787 5.71805,84.72932 18.2588,79.76844 2.56419,0.78918 27.93375,-21.68801 44.84203,-38.38398 10.27321,13.76884 22.57705,30.33411 38.952718,38.29468 21.944349,10.66764 48.883593,15.08487 72.59998,9.35033 36.061395,-8.7195 76.445561,-37.80599 91.699281,-63.08182 7.000716,-11.60048 31.748941,-20.04492 33.952481,-22.77062 1.87281,-3.06321 -0.97026,-3.22649 -3.0786,-6.17322 0,0 6.40722,-2.73964 4.71415,-6.26375 -3.44933,-7.1799 -28.19849,-8.85831 -39.86859,-16.49671 C 61.523323,154.95112 63.435329,144.73187 56.016681,137.45738 36.602307,118.42034 6.8641686,108.83687 -20.326136,108.72231 Z"
         style="opacity:1;fill:#dcec18;fill-opacity:1;fill-rule:evenodd;stroke:none;stroke-width:1.64088333;stroke-linecap:round;stroke-linejoin:round;stroke-miterlimit:4;stroke-dasharray:none;stroke-opacity:1;paint-order:fill markers stroke" />
      <path
         sodipodi:nodetypes="csssccscccascc"
         inkscape:connector-curvature="0"
         id="path6585"
         d="m 17.542737,159.80741 c -2.884476,8.71406 -2.908163,20.33159 -12.0875126,26.03476 -9.950266,6.18217 -24.5805504,2.31314 -34.7128524,5.8887 -20.0417,7.07242 -33.938193,19.56052 -53.618459,27.58404 -15.468823,6.30657 -47.717113,15.31646 -47.717113,15.31646 10.11251,13.54816 22.18585,29.4569 38.141567,37.21331 21.944352,10.66764 48.883704,15.08475 72.600095,9.35022 36.061388,-8.71952 76.445901,-37.80624 91.699643,-63.08208 0.632632,-1.04834 1.411955,-2.07033 2.30474,-3.06522 v -0.003 c 0,0 -24.121118,-1.10566 -33.674696,-7.5081 -10.047006,-6.73314 -16.034477,-18.48048 -20.765734,-29.75363 -2.153017,-5.12997 -2.169678,-17.97606 -2.169678,-17.97606 z"
         style="fill:url(#linearGradient6596);fill-opacity:1;stroke:none;stroke-width:0.30682003px;stroke-linecap:butt;stroke-linejoin:miter;stroke-opacity:1" />
      <path
         style="opacity:1;fill:#72b70f;fill-opacity:0.54545456;fill-rule:evenodd;stroke:none;stroke-width:1.92365539;stroke-linecap:round;stroke-linejoin:round;stroke-miterlimit:4;stroke-dasharray:none;stroke-opacity:1;paint-order:fill markers stroke"
         d="M 56.66225,156.85004 A 14.908928,14.908928 0 0 1 41.753289,171.75896 14.908928,14.908928 0 0 1 26.844328,156.85004 14.908928,14.908928 0 0 1 41.753289,141.9411 14.908928,14.908928 0 0 1 56.66225,156.85004 Z"
         id="path6598"
         inkscape:connector-curvature="0" />
      <path
         inkscape:connector-curvature="0"
         id="path893-4-7"
         d="M 56.662134,155.09679 A 12.717357,12.717357 0 0 1 43.944767,167.81413 12.717357,12.717357 0 0 1 31.2274,155.09679 12.717357,12.717357 0 0 1 43.944767,142.37942 12.717357,12.717357 0 0 1 56.662134,155.09679 Z"
         style="opacity:1;fill:#94ec18;fill-opacity:1;fill-rule:evenodd;stroke:none;stroke-width:1.64088333;stroke-linecap:round;stroke-linejoin:round;stroke-miterlimit:4;stroke-dasharray:none;stroke-opacity:1;paint-order:fill markers stroke" />
      <path
         inkscape:connector-curvature="0"
         id="path6547"
         d="m 9.6141265,241.11344 c -3.54999,-0.0741 -14.4079985,21.95225 -14.3372608,35.04999 5.798e-4,0.10274 0.011596,0.20333 0.013916,0.30323 11.9009841,-4.50624 23.8264363,-10.80295 34.7744323,-18.06522 -7.877979,-8.60115 -18.197801,-17.24099 -20.4515509,-17.288 z"
         style="opacity:0.60500004;fill:#6a8a15;fill-opacity:1;fill-rule:evenodd;stroke:none;stroke-width:1.64088333;stroke-linecap:round;stroke-linejoin:round;stroke-miterlimit:4;stroke-dasharray:none;stroke-opacity:1;paint-order:fill markers stroke" />
      <path
         inkscape:connector-curvature="0"
         id="path903-4-1"
         d="m 55.489743,154.14643 a 9.1654616,9.1654616 0 0 1 -9.165405,9.16547 9.1654616,9.1654616 0 0 1 -9.165522,-9.16547 9.1654616,9.1654616 0 0 1 9.165522,-9.16547 9.1654616,9.1654616 0 0 1 9.165405,9.16547 z"
         style="opacity:1;fill:#005963;fill-opacity:1;fill-rule:evenodd;stroke:none;stroke-width:1.64088309;stroke-linecap:round;stroke-linejoin:round;stroke-miterlimit:4;stroke-dasharray:none;stroke-opacity:1;paint-order:fill markers stroke" />
      <path
         style="opacity:1;fill:#cfd773;fill-opacity:0.75757578;fill-rule:evenodd;stroke:none;stroke-width:1.85553253;stroke-linecap:round;stroke-linejoin:round;stroke-miterlimit:4;stroke-dasharray:none;stroke-opacity:1;paint-order:fill markers stroke"
         d="m -124.88125,218.98855 a 4.2616254,8.2403011 75.078727 0 1 -5.84502,6.41902 4.2616254,8.2403011 75.078727 0 1 -9.74905,-1.30954 4.2616254,8.2403011 75.078727 0 1 5.84491,-6.41901 4.2616254,8.2403011 75.078727 0 1 9.74916,1.30953 z"
         id="path6603"
         inkscape:connector-curvature="0" />
      <path
         inkscape:connector-curvature="0"
         id="path924-8-6"
         d="m -125.02075,218.21798 a 3.7686379,7.2870579 75.078727 0 1 -5.16884,5.67646 3.7686379,7.2870579 75.078727 0 1 -8.6213,-1.15804 3.7686379,7.2870579 75.078727 0 1 5.16872,-5.67646 3.7686379,7.2870579 75.078727 0 1 8.62142,1.15804 z"
         style="opacity:1;fill:#f4f9b8;fill-opacity:1;fill-rule:evenodd;stroke:none;stroke-width:1.64088333;stroke-linecap:round;stroke-linejoin:round;stroke-miterlimit:4;stroke-dasharray:none;stroke-opacity:1;paint-order:fill markers stroke" />
      <path
         sodipodi:nodetypes="ccccc"
         inkscape:connector-curvature="0"
         id="path882-1-4-7"
         d="m -194.1591,191.81943 c -0.21303,0.0385 -0.36819,0.0983 -0.45771,0.1815 -11.15975,8.59138 4.49022,79.26579 16.86422,79.99286 16.20926,-16.62108 24.44638,-33.24215 34.02102,-49.86323 -13.86471,-10.52438 -30.47718,-20.65623 -50.42753,-30.31123 z"
         style="opacity:1;fill:url(#linearGradient6484);fill-opacity:1;fill-rule:evenodd;stroke:none;stroke-width:1.64088333;stroke-linecap:round;stroke-linejoin:round;stroke-miterlimit:4;stroke-dasharray:none;stroke-opacity:1;paint-order:fill markers stroke" />
      <path
         sodipodi:nodetypes="cccaaccccsccc"
         inkscape:connector-curvature="0"
         id="path6554"
         d="m -30.328219,95.294214 c -10.094041,-0.03815 -21.342498,0.535032 -32.681755,1.67435 11.432028,1.453927 25.704117,1.961163 30.248842,5.710896 -2.988147,-1.19521 -44.169794,7.19128 -61.676917,19.83604 -17.321121,12.51043 -29.567321,32.04749 -37.812561,51.75913 -4.27198,10.21309 -4.32625,26.94703 -5.33757,32.77998 0.0626,0.0603 0.17859,0.1732 0.17859,0.1732 0,0 16.24138,-39.95073 30.53944,-55.2288 14.173293,-15.14473 32.762935,-26.60108 52.173714,-33.91322 12.745198,-4.80115 26.823976,-6.34869 40.434958,-5.86913 17.3438456,0.61109 50.869236,11.08689 50.869236,11.08689 0,0 -22.436499,-21.51528 -38.4777268,-25.4349 C -8.801106,96.175038 -18.813741,95.337851 -30.328219,95.294214 Z"
         style="opacity:0.544;fill:#c3f410;fill-opacity:1;stroke:none;stroke-width:0.30682003px;stroke-linecap:butt;stroke-linejoin:miter;stroke-opacity:1" />
      <path
         sodipodi:nodetypes="ccczsscc"
         inkscape:connector-curvature="0"
         id="path882-2-8-0"
         d="m -20.530812,109.41194 c -27.007315,-0.11376 -55.376736,10.54382 -76.067404,27.90207 -20.633154,17.30996 -34.442894,48.28418 -40.811264,69.91361 0,0 32.41296,-6.19786 52.863,-13.41635 20.450044,-7.21846 47.077462,-28.3834 72.524836,-38.43212 17.2383194,-6.80713 33.502777,-5.3255 43.261336,-11.3738 4.939464,-3.06143 14.393503,-5.15347 23.626284,-6.76986 C 35.440353,118.80436 6.2217309,109.52467 -20.530812,109.41194 Z"
         style="display:inline;opacity:0.53699999;fill:url(#linearGradient6583);fill-opacity:1;fill-rule:evenodd;stroke:none;stroke-width:1.64088333;stroke-linecap:round;stroke-linejoin:round;stroke-miterlimit:4;stroke-dasharray:none;stroke-opacity:1;paint-order:fill markers stroke" />
      <path
         id="path6600"
         d="m 42.802643,149.7345 a 0.92980509,0.92980509 0 0 1 -0.929796,0.92981 0.92980509,0.92980509 0 0 1 -0.929911,-0.92981 0.92980509,0.92980509 0 0 1 0.929911,-0.92981 0.92980509,0.92980509 0 0 1 0.929796,0.92981 z"
         style="opacity:1;fill:#b5f05a;fill-opacity:0.83838387;fill-rule:evenodd;stroke:none;stroke-width:5.7981739;stroke-linecap:round;stroke-linejoin:round;stroke-miterlimit:4;stroke-dasharray:none;stroke-opacity:1;paint-order:fill markers stroke"
         inkscape:connector-curvature="0" />
      <path
         sodipodi:nodetypes="csccsccc"
         inkscape:connector-curvature="0"
         id="path6605"
         d="m 19.092424,176.8539 c 0,0 4.361723,26.07302 14.786241,33.56041 10.984771,7.88979 40.27418,4.63329 40.27418,4.63329 l -0.0049,-0.003 c -0.02731,0 -24.121731,-1.10928 -33.669879,-7.5081 C 30.43106,200.80336 24.443835,189.0559 19.712578,177.78275 19.624028,177.57178 19.53993,177.3436 19.4585,177.10799 Z"
         style="fill:#7fcd11;fill-opacity:0.7676768;stroke:none;stroke-width:0.30682003px;stroke-linecap:butt;stroke-linejoin:miter;stroke-opacity:1" />
      <path
         sodipodi:nodetypes="ccscc"
         inkscape:connector-curvature="0"
         id="path6610"
         d="m -193.17669,191.93245 c -0.3511,-0.006 -0.64031,0.01 -0.86475,0.0497 9.37646,0.76831 42.45469,21.13115 51.66874,24.16076 3.43433,1.12922 7.18582,-5.55949 4.75498,-8.98517 -20.36715,-6.94475 -48.91221,-15.10594 -55.55897,-15.22533 z"
         style="fill:url(#linearGradient6621);fill-opacity:1;stroke:none;stroke-width:0.30682003px;stroke-linecap:butt;stroke-linejoin:miter;stroke-opacity:1" />
      <path
         sodipodi:nodetypes="ccscc"
         inkscape:connector-curvature="0"
         id="path882-1-4-7-1"
         d="m -160.83711,210.25834 c -6.48132,2.41937 -17.50666,11.67039 -23.62606,20.30178 1.70154,1.92307 13.24489,5.27484 30.17069,9.41659 0.40193,0.0983 7.90581,-13.34444 10.56091,-17.84615 -5.63246,-4.27541 -10.5267,-7.73202 -17.10554,-11.87222 z"
         style="display:inline;opacity:0.51399997;fill:url(#linearGradient6670);fill-opacity:1;fill-rule:evenodd;stroke:none;stroke-width:1.64088333;stroke-linecap:round;stroke-linejoin:round;stroke-miterlimit:4;stroke-dasharray:none;stroke-opacity:1;paint-order:fill markers stroke" />
    </g>
    <path
       style="opacity:1;fill:url(#linearGradient6482);fill-opacity:1;fill-rule:evenodd;stroke:none;stroke-width:0.52263385;stroke-linecap:round;stroke-linejoin:round;stroke-miterlimit:4;stroke-dasharray:none;stroke-opacity:1;paint-order:fill markers stroke"
       inkscape:transform-center-x="-1.009066"
       inkscape:transform-center-y="-0.72130126"
       d="m -15.816153,223.36376 c 0.122441,3.13478 -12.5325,7.7902 -13.380201,4.47676 -1.034002,-4.04163 0.619072,-11.68657 1.7217,-11.93799 1.153377,-0.26299 10.879278,4.9889 11.658501,7.46123 z"
       id="path896-2-6"
       inkscape:connector-curvature="0"
       sodipodi:nodetypes="cssc" />
  </g>
</svg>
