<?xml version="1.0" encoding="UTF-8" standalone="no"?>
<svg
   xmlns:dc="http://purl.org/dc/elements/1.1/"
   xmlns:cc="http://creativecommons.org/ns#"
   xmlns:rdf="http://www.w3.org/1999/02/22-rdf-syntax-ns#"
   xmlns:svg="http://www.w3.org/2000/svg"
   xmlns="http://www.w3.org/2000/svg"
   id="svg8"
   version="1.1"
   viewBox="0 0 30.696756 37.041666"
   height="52.916668mm"
   width="43.852509mm">
  <defs
     id="defs2" />
  <metadata
     id="metadata5">
    <rdf:RDF>
      <cc:Work
         rdf:about="">
        <dc:format>image/svg+xml</dc:format>
        <dc:type
           rdf:resource="http://purl.org/dc/dcmitype/StillImage" />
        <dc:title></dc:title>
      </cc:Work>
    </rdf:RDF>
  </metadata>
  <g
     transform="translate(42.310911,-303.95168)"
     id="layer3">
    <flowRoot
       transform="scale(0.26458333)"
       style="font-style:normal;font-weight:normal;font-size:40px;line-height:1.25;font-family:sans-serif;letter-spacing:0px;word-spacing:0px;fill:#000000;fill-opacity:1;stroke:none"
       id="flowRoot4953"
       xml:space="preserve"><flowRegion
         id="flowRegion4955"><rect
           y="-848.90887"
           x="2577.1428"
           height="971.42859"
           width="2908.5715"
           id="rect4957" /></flowRegion><flowPara
         id="flowPara4959" /></flowRoot>  </g>
  <g
     transform="translate(42.310911,-303.95168)"
     id="layer2" />
  <g
     transform="translate(42.310911,-303.95168)"
     id="layer1">
    <g
       transform="matrix(0.07970846,0,0,0.07970846,-38.938373,313.81329)"
       id="g4666">
      <path
         style="opacity:1;fill:#d5d5ff;fill-opacity:1;stroke:none;stroke-width:17.49409676;stroke-linecap:round;stroke-linejoin:round;stroke-miterlimit:4;stroke-dasharray:none;stroke-opacity:1;paint-order:markers fill stroke"
         d="M 21.998398,-109.823 H 281.64793 V 240.2289 H 21.998398 Z"
         id="rect4772" />
      <path
         style="opacity:1;fill:#ffdc50;fill-opacity:1;stroke:none;stroke-width:18;stroke-linecap:round;stroke-linejoin:round;stroke-miterlimit:4;stroke-dasharray:none;stroke-opacity:1;paint-order:markers fill stroke"
         d="M 233.58928,-17.854166 A 48.002975,48.002975 0 0 1 185.5863,30.14881 48.002975,48.002975 0 0 1 137.58333,-17.854166 48.002975,48.002975 0 0 1 185.5863,-65.857141 48.002975,48.002975 0 0 1 233.58928,-17.854166"
         id="path4938" />
      <path
         style="opacity:1;fill:#ffffff;fill-opacity:1;stroke:none;stroke-width:7.98424292;stroke-linecap:round;stroke-linejoin:round;stroke-miterlimit:4;stroke-dasharray:none;stroke-opacity:1;paint-order:markers fill stroke"
         d="m 59.452242,-40.01431 a 17.878645,16.038457 6.1381111 0 0 -5.288695,0.537917 17.878645,16.038457 6.1381111 0 0 -11.681763,9.555383 16.138925,14.607532 0.64249786 0 0 -5.836816,-0.86937 16.138925,14.607532 0.64249786 0 0 -15.708212,14.955454 16.138925,14.607532 0.64249786 0 0 1.238361,5.23733 12.595093,13.916422 89.138093 0 0 -6.701963,10.34220933 12.595093,13.916422 89.138093 0 0 13.41551,12.99617367 12.595093,13.916422 89.138093 0 0 3.637227,-0.332305 16.817766,15.223204 0 0 0 -0.03592,0.65096 16.817766,15.223204 0 0 0 10.617073,14.136634 16.976916,18.758469 89.058688 0 0 15.0857,7.819204 16.976916,18.758469 89.058688 0 0 6.569685,-0.863611 18.94798,17.151406 0.10580012 0 0 3.402227,2.206696 14.265031,15.780867 87.402503 0 0 10.145809,4.709439 14.265031,15.780867 87.402503 0 0 15.022893,-6.687488 18.550209,16.642547 6.1106824 0 0 12.713432,1.034456 18.550209,16.642547 6.1106824 0 0 13.33199,-15.646726 14.570078,16.198776 84.696844 0 0 0.0474,0.01173 14.570078,16.198776 84.696844 0 0 19.53857,-11.0865897 14.570078,16.198776 84.696844 0 0 -3.71557,-13.133532 17.228631,15.543165 3.9681413 0 0 -0.17441,-3.858839 17.228631,15.543165 3.9681413 0 0 -17.5097,-13.1143373 17.64547,19.540917 86.590323 0 0 -14.12817,-8.530952 17.64547,19.540917 86.590323 0 0 -9.762511,1.101002 15.711261,14.205126 2.3934607 0 0 -16.856896,-11.103226 15.711261,14.205126 2.3934607 0 0 -7.890072,2.745466 17.878645,16.038457 6.1381111 0 0 -9.475036,-2.813079 z"
         id="path4775" />
      <path
         style="opacity:1;fill:#ffffff;fill-opacity:1;stroke:none;stroke-width:6.71269703;stroke-linecap:round;stroke-linejoin:round;stroke-miterlimit:4;stroke-dasharray:none;stroke-opacity:1;paint-order:markers fill stroke"
         d="m 243.69836,21.478992 a 13.901531,14.580123 75.482554 0 1 4.30542,0.467062 13.901531,14.580123 75.482554 0 1 9.50991,8.29673 12.683111,13.138698 88.181232 0 1 4.75164,-0.754855 12.683111,13.138698 88.181232 0 1 12.78776,12.985496 12.683111,13.138698 88.181232 0 1 -1.00813,4.547459 11.329565,10.935593 2.435565 0 1 5.45595,8.979915 11.329565,10.935593 2.435565 0 1 -10.92132,11.284296 11.329565,10.935593 2.435565 0 1 -2.961,-0.288534 13.691028,13.217976 0 0 1 0.0292,0.565214 13.691028,13.217976 0 0 1 -8.64316,12.274531 15.271668,14.739962 2.6579147 0 1 -12.28098,6.789241 15.271668,14.739962 2.6579147 0 1 -5.34826,-0.749854 14.892183,15.425205 89.699857 0 1 -2.76969,1.91603 12.851573,12.381519 7.1134057 0 1 -8.25952,4.089093 12.851573,12.381519 7.1134057 0 1 -12.22985,-5.806591 14.42532,15.127592 75.525454 0 1 -10.34977,0.898199 14.42532,15.127592 75.525454 0 1 -10.85332,-13.585714 13.205116,12.63364 13.101014 0 1 -0.0385,0.01018 13.205116,12.63364 13.101014 0 1 -15.90598,-9.626244 13.205116,12.63364 13.101014 0 1 3.02477,-11.40356 13.484862,14.036873 79.608277 0 1 0.14199,-3.350547 13.484862,14.036873 79.608277 0 1 14.25431,-11.386885 15.917608,15.311827 9.1112212 0 1 11.50148,-7.40724 15.917608,15.311827 9.1112212 0 1 7.94747,0.955976 12.330179,12.794207 83.411037 0 1 13.72289,-9.640689 12.330179,12.794207 83.411037 0 1 6.42316,2.383828 13.901531,14.580123 75.482554 0 1 7.71345,-2.442535 z"
         id="path4775-3" />
      <path
         style="opacity:1;fill:#8dd35f;fill-opacity:1;stroke:none;stroke-width:16.28780937;stroke-linecap:round;stroke-linejoin:round;stroke-miterlimit:4;stroke-dasharray:none;stroke-opacity:1;paint-order:markers fill stroke"
         d="M 176.93256,140.89303 A 210.07385,135.24409 0 0 0 19.859984,186.522 v 55.82342 H 279.50976 V 158.1842 a 210.07385,135.24409 0 0 0 -102.5772,-17.29117 z"
         id="path4941" />
      <path
         style="color:#000000;font-style:normal;font-variant:normal;font-weight:normal;font-stretch:normal;font-size:medium;line-height:normal;font-family:sans-serif;font-variant-ligatures:normal;font-variant-position:normal;font-variant-caps:normal;font-variant-numeric:normal;font-variant-alternates:normal;font-feature-settings:normal;text-indent:0;text-align:start;text-decoration:none;text-decoration-line:none;text-decoration-style:solid;text-decoration-color:#000000;letter-spacing:normal;word-spacing:normal;text-transform:none;writing-mode:lr-tb;direction:ltr;text-orientation:mixed;dominant-baseline:auto;baseline-shift:baseline;text-anchor:start;white-space:normal;shape-padding:0;clip-rule:nonzero;display:inline;overflow:visible;visibility:visible;opacity:1;isolation:auto;mix-blend-mode:normal;color-interpolation:sRGB;color-interpolation-filters:linearRGB;solid-color:#000000;solid-opacity:1;vector-effect:none;fill:#d7976e;fill-opacity:1;fill-rule:nonzero;stroke:none;stroke-width:18;stroke-linecap:round;stroke-linejoin:round;stroke-miterlimit:4;stroke-dasharray:none;stroke-dashoffset:0;stroke-opacity:1;paint-order:markers fill stroke;color-rendering:auto;image-rendering:auto;shape-rendering:auto;text-rendering:auto;enable-background:accumulate"
         d="m 48.258036,-122.31133 c -24.32017,0 -43.8753579,20.42936 -43.8753579,45.09176 v 289.22478 c 0,24.66245 19.5551909,45.09182 43.8753579,45.09182 H 252.23266 c 24.32018,0 43.87691,-20.42936 43.87691,-45.09182 V -77.21957 c 0,-24.66241 -19.55673,-45.09176 -43.87691,-45.09176 z m 0,18.00045 H 141.43374 V 239.09709 H 48.258036 c -14.322898,0 -25.875422,-11.76478 -25.875423,-27.09188 V -77.21957 c 1e-6,-15.327095 11.552527,-27.09131 25.875423,-27.09131 z m 111.175644,0 h 92.79898 c 14.3229,0 25.87646,11.764215 25.87646,27.09131 v 289.22478 c 0,15.32709 -11.55356,27.09188 -25.87646,27.09188 h -92.79898 z"
         id="path4691" />
      <path
         id="path4767"
         d="m 278.49385,-123.69583 c -0.11048,0.0357 17.57742,-0.77865 17.7481,16.97291 L 296.10957,6.4064762 H 246.41755 L 273.65238,-21.36755 c -14.6842,-4.907241 -50.68455,-7.556157 -70.43573,-22.259505 -25.52054,-18.998223 -54.02149,-57.014245 -53.65969,-78.934845 z"
         style="opacity:1;fill:#a3e29d;fill-opacity:1;stroke:none;stroke-width:23.30896378;stroke-linecap:round;stroke-linejoin:round;stroke-miterlimit:4;stroke-dasharray:none;stroke-opacity:1;paint-order:markers fill stroke" />
      <path
         style="opacity:1;fill:#a3e29d;fill-opacity:1;stroke:none;stroke-width:23.30896378;stroke-linecap:round;stroke-linejoin:round;stroke-miterlimit:4;stroke-dasharray:none;stroke-opacity:1;paint-order:markers fill stroke"
         d="m 21.998399,-123.72102 c 0.11048,0.0357 -17.4781826,-0.0227 -17.6488626,17.72886 L 4.3826781,6.3812911 H 54.074699 L 26.839869,-21.392735 c 14.6842,-4.907241 50.59116,-7.682449 70.43573,-22.259505 25.867671,-19.001381 55.506911,-57.01425 55.145111,-78.93485 z"
         id="path4769" />
      <path
         style="fill:none;stroke:#008000;stroke-width:3.87817025;stroke-linecap:round;stroke-linejoin:miter;stroke-miterlimit:4;stroke-dasharray:none;stroke-opacity:1"
         d="m 239.78683,183.45513 c -3.76907,-12.75467 12.87362,-27.5608 -0.73293,-59.61148"
         id="path4633" />
      <path
         style="opacity:1;fill:#ec833d;fill-opacity:1;stroke:none;stroke-width:8.23970604;stroke-linecap:round;stroke-linejoin:round;stroke-miterlimit:4;stroke-dasharray:none;stroke-opacity:1;paint-order:markers fill stroke"
         d="m 206.44648,182.16924 v 12.25597 h 4.40461 l 7.52812,54.31006 h 41.43539 l 7.52811,-54.31006 h 4.40462 v -12.25597 z"
         id="rect4627" />
      <path
         style="opacity:1;fill:#008000;fill-opacity:1;stroke:none;stroke-width:3.87817025;stroke-linecap:round;stroke-linejoin:round;stroke-miterlimit:4;stroke-dasharray:none;stroke-opacity:1;paint-order:markers fill stroke"
         d="m 258.21449,144.91996 c -5.08346,3.67741 -11.76267,0.98653 -12.74171,-1.81578 -0.97905,-2.80232 0.64686,-6.32404 6.20348,-8.82094 5.72293,-2.57161 15.2459,1.32716 15.2459,1.32716 -2.37093,0.25632 -6.38519,7.62946 -8.70767,9.30956 z"
         id="path4635" />
      <path
         style="opacity:1;fill:#008000;fill-opacity:1;stroke:none;stroke-width:3.87817025;stroke-linecap:round;stroke-linejoin:round;stroke-miterlimit:4;stroke-dasharray:none;stroke-opacity:1;paint-order:markers fill stroke"
         d="m 228.10787,167.79569 c 5.08347,3.67741 11.76267,0.98651 12.74172,-1.81579 0.97904,-2.80233 -0.64687,-6.32405 -6.20349,-8.82095 -5.72292,-2.57161 -15.2459,1.32716 -15.2459,1.32716 2.37093,0.25632 6.38519,7.62947 8.70767,9.30958 z"
         id="path4635-9" />
      <path
         style="opacity:1;fill:#c83737;fill-opacity:1;stroke:none;stroke-width:5.84461975;stroke-linecap:round;stroke-linejoin:round;stroke-miterlimit:4;stroke-dasharray:none;stroke-opacity:1;paint-order:markers fill stroke"
         id="path4663"
         d="m 245.68431,132.04266 c -0.83259,0.59038 -1.8557,4.23973 -2.82089,4.57163 -0.96519,0.3319 -4.01633,-1.91645 -5.03593,-1.86992 -1.0196,0.0465 -3.85329,2.56342 -4.8447,2.32081 -0.9914,-0.24261 -2.34264,-3.78361 -3.22554,-4.29571 -0.8829,-0.51209 -4.62748,0.0733 -5.33034,-0.66684 -0.70286,-0.74009 0.0748,-4.44951 -0.39107,-5.35764 -0.46588,-0.90813 -3.93248,-2.44019 -4.12364,-3.44279 -0.19116,-1.0026 2.46853,-3.70271 2.56757,-4.71856 0.0991,-1.01584 -1.98895,-4.17887 -1.60772,-5.12566 0.38124,-0.94679 4.0785,-1.78034 4.71103,-2.58137 0.63253,-0.80103 0.58606,-4.59081 1.41865,-5.18119 0.83258,-0.59038 4.39357,0.70729 5.35876,0.37539 0.96519,-0.3319 2.975,-3.54518 3.9946,-3.59171 1.01959,-0.0465 3.31372,2.97035 4.30512,3.21296 0.99141,0.24261 4.4194,-1.37399 5.3023,-0.8619 0.8829,0.5121 1.18179,4.29035 1.88465,5.03045 0.70285,0.74009 4.46067,1.23343 4.92655,2.14156 0.46588,0.90813 -1.32536,4.24819 -1.1342,5.25079 0.19116,1.0026 3.08571,3.44926 2.98666,4.4651 -0.099,1.01584 -3.4117,2.85726 -3.79294,3.80405 -0.38123,0.94679 0.73106,4.56996 0.0985,5.37099 -0.63253,0.80103 -4.41487,0.55918 -5.24745,1.14956 z" />
      <path
         d="m 242.9656,127.32094 c -0.52085,0.36933 -1.1609,2.65233 -1.76471,2.85996 -0.60381,0.20763 -2.51257,-1.19891 -3.15042,-1.1698 -0.63785,0.0291 -2.41057,1.60365 -3.03078,1.45187 -0.62022,-0.15177 -1.46554,-2.36698 -2.01787,-2.68734 -0.55233,-0.32036 -2.89489,0.0458 -3.33459,-0.41717 -0.4397,-0.463 0.0468,-2.78356 -0.24465,-3.35168 -0.29145,-0.56812 -2.46012,-1.52655 -2.5797,-2.15377 -0.11959,-0.62721 1.54428,-2.31637 1.60624,-2.95187 0.062,-0.6355 -1.24426,-2.61426 -1.00577,-3.20656 0.23849,-0.5923 2.55146,-1.11376 2.94716,-1.61487 0.39571,-0.50112 0.36663,-2.87196 0.88749,-3.24129 0.52086,-0.36933 2.74857,0.44247 3.35238,0.23484 0.60381,-0.20763 1.86112,-2.21783 2.49897,-2.24693 0.63785,-0.0291 2.07303,1.85821 2.69324,2.00999 0.62021,0.15177 2.76472,-0.85956 3.31705,-0.5392 0.55233,0.32036 0.73931,2.684 1.17902,3.14699 0.4397,0.46299 2.79054,0.77162 3.08199,1.33974 0.29145,0.56811 -0.82913,2.65762 -0.70954,3.28483 0.11958,0.62721 1.93038,2.15781 1.86842,2.79331 -0.062,0.6355 -2.13433,1.78747 -2.37282,2.37977 -0.23849,0.5923 0.45734,2.85891 0.0616,3.36003 -0.39571,0.50111 -2.76189,0.34981 -3.28275,0.71915 z"
         id="path4674"
         style="opacity:1;fill:#ff8080;fill-opacity:1;stroke:none;stroke-width:3.65632486;stroke-linecap:round;stroke-linejoin:round;stroke-miterlimit:4;stroke-dasharray:none;stroke-opacity:1;paint-order:markers fill stroke" />
      <path
         style="opacity:1;fill:#a05a2c;fill-opacity:1;stroke:none;stroke-width:5.58026552;stroke-linecap:round;stroke-linejoin:round;stroke-miterlimit:4;stroke-dasharray:none;stroke-opacity:1;paint-order:markers fill stroke"
         d="m -38.41526,246.20886 h 377.32159 c 2.1582,0 3.89565,2.77298 3.89565,6.21744 v 9.77028 c 0,3.44447 -1.73745,6.21745 -3.89565,6.21745 H -38.41526 c -2.158191,0 -3.895651,-2.77298 -3.895651,-6.21745 v -9.77028 c 0,-3.44446 1.73746,-6.21744 3.895651,-6.21744 z"
         id="rect4676" />
      <path
         style="opacity:1;fill:#7d7d7d;fill-opacity:1;stroke:none;stroke-width:19.78481674;stroke-linecap:round;stroke-linejoin:round;stroke-miterlimit:4;stroke-dasharray:none;stroke-opacity:1;paint-order:markers fill stroke"
         d="m 118.13971,42.370929 c -1.19751,0.03926 -2.42726,0.418531 -3.31556,1.020093 -4.76973,3.230084 -6.41459,16.047082 -6.41459,16.047082 -9.76135,-3.577299 -21.205765,-5.463751 -34.57102,-5.463749 -14.332407,3e-6 -26.456399,2.169007 -36.66391,6.266802 0,0 -1.221111,-16.070549 -7.216097,-17.384469 -5.994986,-1.31392 -10.480421,4.430747 -7.77317,7.750432 2.932978,3.596476 4.76102,14.779482 2.138373,16.457908 -27.9531651,17.889297 -36.285641,56.341272 -36.285641,104.943982 0.03244,22.47195 4.0386507,44.45857 11.546581,63.78473 -12.312004,3.82186 -20.327305,9.28172 -24.616068,16.0998 -4.412748,7.01518 -5.070687,14.44526 -2.514071,21.15871 4.686882,12.3072 25.589965,17.31248 24.6008123,28.96061 -0.9891553,11.64814 -20.5943333,17.91269 -25.9366403,21.11984 -5.342308,3.20714 -7.733454,8.15839 -3.108722,13.02035 4.624731,4.86196 13.405273,6.43943 25.1287406,2.98033 C 4.8621874,335.67427 17.850864,321.86586 17.283898,302.47252 16.716933,283.07919 3.9555371,280.64059 -1.5062116,277.98135 c -5.4617488,-2.65925 -13.0999524,-4.8225 -15.0058094,-8.83564 -1.881902,-3.96269 -1.973262,-7.62784 0.507974,-11.57242 6.646833,-6.78688 12.7248572,-9.07625 19.4186329,-11.1282 45.9108701,-0.72482 93.7853611,0.0249 139.8572941,-0.23623 10.31788,-21.60606 16.34494,-47.68118 16.36711,-74.19985 0,-49.81885 -9.33825,-88.090812 -38.37802,-106.313407 0,0 5.25724,-17.047342 0,-22.304581 -0.7586,-0.758603 -1.92375,-1.059352 -3.12126,-1.020093 z"
         id="path4543" />
      <path
         style="opacity:1;fill:#e6e6e6;fill-opacity:1;stroke:none;stroke-width:19.20000076;stroke-linecap:round;stroke-linejoin:round;stroke-miterlimit:4;stroke-dasharray:none;stroke-opacity:1;paint-order:markers fill stroke"
         d="m 125.04172,105.37886 a 51.203173,30.238096 0 0 1 -51.20318,30.2381 51.203173,30.238096 0 0 1 -51.20317,-30.2381 51.203173,30.238096 0 0 1 51.20317,-30.238096 51.203173,30.238096 0 0 1 51.20318,30.238096 z"
         id="path4556" />
      <path
         style="fill:none;stroke:#393939;stroke-width:1.96500003;stroke-linecap:round;stroke-linejoin:round;stroke-miterlimit:4;stroke-dasharray:none;stroke-opacity:1"
         d="m 40.3875,91.015767 c 5.84667,-3.510224 12.04629,-4.285075 18.89881,0"
         id="path4559" />
      <path
         id="path4561"
         d="m 86.20916,91.015767 c 5.84667,-3.510224 12.04629,-4.285075 18.89881,0"
         style="fill:none;stroke:#393939;stroke-width:1.96500003;stroke-linecap:round;stroke-linejoin:round;stroke-miterlimit:4;stroke-dasharray:none;stroke-opacity:1" />
      <g
         id="g4574"
         transform="matrix(1.0167166,0,0,0.76726244,391.40217,98.032001)"
         style="stroke:#393939;stroke-opacity:1">
        <path
           id="path4567"
           d="M -312.96429,26.369046 V 9.3601187 l -4.7247,-7.5595236"
           style="fill:none;stroke:#393939;stroke-width:1.36500001;stroke-linecap:round;stroke-linejoin:round;stroke-miterlimit:4;stroke-dasharray:none;stroke-opacity:1" />
        <path
           id="path4569"
           d="m -312.96427,9.3601187 4.91368,-7.5595236"
           style="fill:none;stroke:#393939;stroke-width:1.36500001;stroke-linecap:round;stroke-linejoin:round;stroke-miterlimit:4;stroke-dasharray:none;stroke-opacity:1" />
      </g>
      <g
         id="g4585"
         transform="translate(249.59732,119.07529)"
         style="stroke:#393939;stroke-opacity:1">
        <path
           id="path4576"
           d="M -210.60839,-16.507156 -242.948,-26.396128"
           style="fill:none;stroke:#393939;stroke-width:1.56500006;stroke-linecap:round;stroke-linejoin:round;stroke-miterlimit:4;stroke-dasharray:none;stroke-opacity:1" />
        <path
           style="fill:none;stroke:#393939;stroke-width:1.56500006;stroke-linecap:round;stroke-linejoin:round;stroke-miterlimit:4;stroke-dasharray:none;stroke-opacity:1"
           d="m -213.28508,-12.516753 -33.8025,1.016229"
           id="path4578" />
        <path
           id="path4580"
           d="m -210.63777,-8.8610234 -32.30879,9.9891901"
           style="fill:none;stroke:#393939;stroke-width:1.56500006;stroke-linecap:round;stroke-linejoin:round;stroke-miterlimit:4;stroke-dasharray:none;stroke-opacity:1" />
      </g>
      <g
         id="g4593"
         transform="matrix(-1,0,0,1,-104.13128,119.07529)"
         style="stroke:#393939;stroke-opacity:1">
        <path
           style="fill:none;stroke:#393939;stroke-width:1.56500006;stroke-linecap:round;stroke-linejoin:round;stroke-miterlimit:4;stroke-dasharray:none;stroke-opacity:1"
           d="M -210.60839,-16.507156 -242.948,-26.396128"
           id="path4587" />
        <path
           id="path4589"
           d="m -213.28508,-12.516753 -33.8025,1.016229"
           style="fill:none;stroke:#393939;stroke-width:1.56500006;stroke-linecap:round;stroke-linejoin:round;stroke-miterlimit:4;stroke-dasharray:none;stroke-opacity:1" />
        <path
           style="fill:none;stroke:#393939;stroke-width:1.56500006;stroke-linecap:round;stroke-linejoin:round;stroke-miterlimit:4;stroke-dasharray:none;stroke-opacity:1"
           d="m -210.63777,-8.8610234 -32.30879,9.9891901"
           id="path4591" />
      </g>
      <path
         style="opacity:1;fill:#e6e6e6;fill-opacity:1;stroke:none;stroke-width:0.85811275;stroke-linecap:round;stroke-linejoin:round;stroke-miterlimit:4;stroke-dasharray:none;stroke-opacity:1;paint-order:markers fill stroke"
         d="m 75.424197,144.92348 a 43.431298,55.436386 0 0 0 -43.430941,55.43648 43.431298,55.436386 0 0 0 18.907373,45.75326 c 16.247018,-0.0132 32.577968,0.0586 48.849732,0.10999 A 43.431298,55.436386 0 0 0 118.85566,200.35996 43.431298,55.436386 0 0 0 75.424197,144.92348 Z"
         id="path4658" />
      <path
         style="opacity:1;fill:#999999;fill-opacity:1;stroke:none;stroke-width:10.66499996;stroke-linecap:round;stroke-linejoin:round;stroke-miterlimit:4;stroke-dasharray:none;stroke-opacity:1;paint-order:markers fill stroke"
         d="m 47.487305,224.88334 a 20.579754,20.045216 0 0 0 -20.579623,20.04528 20.579754,20.045216 0 0 0 0.06976,1.34617 h 41.03884 a 20.579754,20.045216 0 0 0 0.05116,-1.34617 20.579754,20.045216 0 0 0 -20.580137,-20.04528 z"
         id="path4617" />
      <path
         id="path4641"
         d="m 102.48284,224.88334 a 20.579754,20.045216 0 0 0 -20.579623,20.04528 20.579754,20.045216 0 0 0 0.06976,1.34617 h 41.038843 a 20.579754,20.045216 0 0 0 0.0512,-1.34617 20.579754,20.045216 0 0 0 -20.58014,-20.04528 z"
         style="opacity:1;fill:#999999;fill-opacity:1;stroke:none;stroke-width:10.66499996;stroke-linecap:round;stroke-linejoin:round;stroke-miterlimit:4;stroke-dasharray:none;stroke-opacity:1;paint-order:markers fill stroke" />
      <path
         style="fill:#1a1a1a;stroke:none;stroke-width:0.99999994px;stroke-linecap:butt;stroke-linejoin:miter;stroke-opacity:1"
         d="m 72.730469,759.875 c 0,0 -71.5528029,7.8899 -106.933594,13.98828 2.500172,13.93543 5.420312,27.69504 8.746094,41.24024 z"
         transform="scale(0.26458333)"
         id="path4670" />
      <path
         style="fill:#1a1a1a;stroke:none;stroke-width:0.99999994px;stroke-linecap:butt;stroke-linejoin:miter;stroke-opacity:1"
         d="m -45.203125,651.34766 c 0.04273,13.5298 0.469931,27.01071 1.267578,40.41211 L 59.761719,669.56445 c 0,0 -68.9972947,-13.38527 -104.964844,-18.21679 z"
         transform="scale(0.26458333)"
         id="path4672" />
      <path
         style="fill:#1a1a1a;stroke:none;stroke-width:0.99999994px;stroke-linecap:butt;stroke-linejoin:miter;stroke-opacity:1"
         d="m -39.160156,527.77734 c -1.481163,13.51223 -2.666626,27.36481 -3.585938,41.53125 l 102.009766,12.26368 c 0,0 -67.7381627,-38.98464 -98.423828,-53.79493 z"
         transform="scale(0.26458333)"
         id="path4675" />
      <path
         id="path4688"
         d="m 128.23042,201.05026 c 0,0 18.93168,2.08753 28.29284,3.70106 -0.6615,3.68709 -1.43412,7.32765 -2.31407,10.91148 z"
         style="fill:#1a1a1a;stroke:none;stroke-width:0.26458332px;stroke-linecap:butt;stroke-linejoin:miter;stroke-opacity:1" />
      <path
         id="path4690"
         d="m 159.43368,172.33573 c -0.0113,3.57976 -0.12434,7.14659 -0.33538,10.69237 l -27.43657,-5.87251 c 0,0 18.25554,-3.54152 27.77195,-4.81986 z"
         style="fill:#1a1a1a;stroke:none;stroke-width:0.26458332px;stroke-linecap:butt;stroke-linejoin:miter;stroke-opacity:1" />
      <path
         id="path4692"
         d="m 157.83481,139.64109 c 0.39189,3.57511 0.70555,7.24027 0.94878,10.98847 l -26.99008,3.24477 c 0,0 17.92239,-10.31469 26.0413,-14.23324 z"
         style="fill:#1a1a1a;stroke:none;stroke-width:0.26458332px;stroke-linecap:butt;stroke-linejoin:miter;stroke-opacity:1" />
      <path
         style="fill:#1a1a1a;fill-opacity:1;stroke:none;stroke-width:0.99999994px;stroke-linecap:butt;stroke-linejoin:miter;stroke-opacity:1"
         d="m -16.695312,1159.1348 c -18.275807,32.8914 -75.160128,51.7669 -92.462888,62.1543 -20.1914,12.1214 -29.22735,30.835 -11.74805,49.2109 17.4793,18.3759 50.66544,24.3374 94.974609,11.2637 37.452983,-11.0509 78.320328,-50.0492 88.777344,-106.1192 -32.528762,19.4164 -56.2555053,2.3673 -79.541015,-16.5097 z"
         transform="scale(0.26458333)"
         id="path4694" />
      <path
         style="fill:#e6e6e6;fill-opacity:1;stroke:none;stroke-width:0.25313163px;stroke-linecap:butt;stroke-linejoin:miter;stroke-opacity:1"
         d="m 110.34612,60.474708 c 0,0 1.87894,-15.109596 7.56286,-14.097805 6.39663,1.138659 0.38784,17.616987 0.38784,17.616987 -2.05285,-1.2886 -5.68377,-2.780772 -7.9507,-3.519182 z"
         id="path4699" />
      <path
         style="fill:#e6e6e6;fill-opacity:1;stroke:none;stroke-width:0.26458332px;stroke-linecap:butt;stroke-linejoin:miter;stroke-opacity:1"
         d="m 32.505952,62.371278 c 0.170892,-4.741428 -1.475363,-13.263187 -6.044577,-15.690989 -1.77069,-0.940837 -3.660014,1.408575 -3.232052,2.664243 1.30085,3.81678 3.861069,4.460929 3.890469,16.145051 z"
         id="path4701" />
    </g>
  </g>
</svg>
