<?xml version="1.0" encoding="UTF-8" standalone="no"?>
<svg
   xmlns:dc="http://purl.org/dc/elements/1.1/"
   xmlns:cc="http://creativecommons.org/ns#"
   xmlns:rdf="http://www.w3.org/1999/02/22-rdf-syntax-ns#"
   xmlns:svg="http://www.w3.org/2000/svg"
   xmlns="http://www.w3.org/2000/svg"
   xmlns:sodipodi="http://sodipodi.sourceforge.net/DTD/sodipodi-0.dtd"
   xmlns:inkscape="http://www.inkscape.org/namespaces/inkscape"
   width="100"
   height="100"
   viewBox="0 0 100 100"
   version="1.1"
   id="svg4"
   sodipodi:docname="da.svg"
   inkscape:version="0.92.4 (5da689c313, 2019-01-14)">
  <metadata
     id="metadata10">
    <rdf:RDF>
      <cc:Work
         rdf:about="">
        <dc:format>image/svg+xml</dc:format>
        <dc:type
           rdf:resource="http://purl.org/dc/dcmitype/StillImage" />
        <dc:title></dc:title>
      </cc:Work>
    </rdf:RDF>
  </metadata>
  <defs
     id="defs8" />
  <sodipodi:namedview
     pagecolor="#ffffff"
     bordercolor="#666666"
     borderopacity="1"
     objecttolerance="10"
     gridtolerance="10"
     guidetolerance="10"
     inkscape:pageopacity="0"
     inkscape:pageshadow="2"
     inkscape:window-width="1366"
     inkscape:window-height="705"
     id="namedview6"
     showgrid="false"
     fit-margin-top="0"
     fit-margin-left="0"
     fit-margin-right="0"
     fit-margin-bottom="0"
     inkscape:zoom="2.4583333"
     inkscape:cx="86.11634"
     inkscape:cy="103.31587"
     inkscape:window-x="-8"
     inkscape:window-y="-8"
     inkscape:window-maximized="1"
     inkscape:current-layer="svg4" />
  <path
     d="M 79.166667,0 H 20.833333 C 9.325,0 0,9.329165 0,20.833335 V 79.16667 C 0,90.67083 9.325,100 20.833333,100 H 79.166667 C 90.675,100 100,90.67083 100,79.16667 V 20.833335 C 100,9.329165 90.675,0 79.166667,0 Z M 70.833334,28.783335 58.895835,51.5625 l 1,1.21667 H 70.833334 V 69.44583 H 50.7375 l -1.795833,1.2125 -6.0375,11.45417 -1.2125,1.22083 h -12.525 V 71.21667 L 41.5625,48.345834 l -1,-1.125 H 29.166667 V 30.554165 h 20.4875 L 51.45,29.341665 57.504165,17.8875 58.7125,16.666665 h 12.120834 z"
     id="path2"
     inkscape:connector-curvature="0"
     style="fill:#000000;fill-opacity:1;stroke-width:1" />
</svg>
