<?xml version="1.0" encoding="UTF-8" standalone="no"?>
<svg
   xmlns:dc="http://purl.org/dc/elements/1.1/"
   xmlns:cc="http://creativecommons.org/ns#"
   xmlns:rdf="http://www.w3.org/1999/02/22-rdf-syntax-ns#"
   xmlns:svg="http://www.w3.org/2000/svg"
   xmlns="http://www.w3.org/2000/svg"
   xmlns:sodipodi="http://sodipodi.sourceforge.net/DTD/sodipodi-0.dtd"
   xmlns:inkscape="http://www.inkscape.org/namespaces/inkscape"
   width="100"
   height="100"
   viewBox="0 0 100 100"
   version="1.1"
   id="svg4532"
   sodipodi:docname="fb.svg"
   inkscape:version="0.92.4 (5da689c313, 2019-01-14)">
  <metadata
     id="metadata4538">
    <rdf:RDF>
      <cc:Work
         rdf:about="">
        <dc:format>image/svg+xml</dc:format>
        <dc:type
           rdf:resource="http://purl.org/dc/dcmitype/StillImage" />
        <dc:title></dc:title>
      </cc:Work>
    </rdf:RDF>
  </metadata>
  <defs
     id="defs4536" />
  <sodipodi:namedview
     pagecolor="#ffffff"
     bordercolor="#666666"
     borderopacity="1"
     objecttolerance="10"
     gridtolerance="10"
     guidetolerance="10"
     inkscape:pageopacity="0"
     inkscape:pageshadow="2"
     inkscape:window-width="1366"
     inkscape:window-height="705"
     id="namedview4534"
     showgrid="false"
     fit-margin-top="0"
     fit-margin-left="0"
     fit-margin-right="0"
     fit-margin-bottom="0"
     inkscape:zoom="9.8333333"
     inkscape:cx="26.084746"
     inkscape:cy="12.000001"
     inkscape:window-x="-8"
     inkscape:window-y="-8"
     inkscape:window-maximized="1"
     inkscape:current-layer="svg4532" />
  <path
     d="M 79.166667,0 H 20.833334 C 9.3291667,0 0,9.329167 0,20.833334 V 79.166667 C 0,90.670834 9.3291667,100 20.833334,100 H 79.166667 C 90.675001,100 100,90.670834 100,79.166667 V 20.833334 C 100,9.329167 90.675001,0 79.166667,0 Z m -12.5,29.166667 H 58.65 c -2.5625,0 -4.483333,1.05 -4.483333,3.704167 V 37.5 h 12.5 L 65.675001,50 H 54.166667 v 33.333334 h -12.5 V 50 H 33.333334 V 37.5 h 8.333333 v -8.0125 c 0,-8.425 4.433333,-12.820833 14.420833,-12.820833 h 10.579167 z"
     id="path4530"
     inkscape:connector-curvature="0"
     style="stroke-width:1" />
</svg>
