<?xml version="1.0" encoding="UTF-8" standalone="no"?>
<svg
   xmlns:dc="http://purl.org/dc/elements/1.1/"
   xmlns:cc="http://creativecommons.org/ns#"
   xmlns:rdf="http://www.w3.org/1999/02/22-rdf-syntax-ns#"
   xmlns:svg="http://www.w3.org/2000/svg"
   xmlns="http://www.w3.org/2000/svg"
   xmlns:sodipodi="http://sodipodi.sourceforge.net/DTD/sodipodi-0.dtd"
   xmlns:inkscape="http://www.inkscape.org/namespaces/inkscape"
   width="100"
   height="100"
   viewBox="0 0 100 100"
   version="1.1"
   id="svg4552"
   sodipodi:docname="insta.svg"
   inkscape:version="0.92.4 (5da689c313, 2019-01-14)">
  <metadata
     id="metadata4558">
    <rdf:RDF>
      <cc:Work
         rdf:about="">
        <dc:format>image/svg+xml</dc:format>
        <dc:type
           rdf:resource="http://purl.org/dc/dcmitype/StillImage" />
        <dc:title></dc:title>
      </cc:Work>
    </rdf:RDF>
  </metadata>
  <defs
     id="defs4556" />
  <sodipodi:namedview
     pagecolor="#ffffff"
     bordercolor="#666666"
     borderopacity="1"
     objecttolerance="10"
     gridtolerance="10"
     guidetolerance="10"
     inkscape:pageopacity="0"
     inkscape:pageshadow="2"
     inkscape:window-width="1366"
     inkscape:window-height="705"
     id="namedview4554"
     showgrid="false"
     fit-margin-top="0"
     fit-margin-left="0"
     fit-margin-right="0"
     fit-margin-bottom="0"
     inkscape:zoom="9.8333333"
     inkscape:cx="26.084746"
     inkscape:cy="12.000001"
     inkscape:window-x="-8"
     inkscape:window-y="-8"
     inkscape:window-maximized="1"
     inkscape:current-layer="svg4552" />
  <path
     d="M 63.470834,22.866667 C 59.958334,22.708334 58.9,22.675 50,22.675 c -8.9,0 -9.954166,0.03333 -13.466666,0.191667 -9.041667,0.4125 -13.254167,4.695833 -13.6625,13.6625 -0.1625,3.516667 -0.2,4.570833 -0.2,13.470833 0,8.9 0.0375,9.954167 0.195833,13.470834 0.4125,8.95 4.608333,13.25 13.6625,13.6625 C 40.041667,77.291667 41.1,77.329167 50,77.329167 c 8.904167,0 9.958334,-0.03333 13.470834,-0.191666 9.041667,-0.4125 13.25,-4.704167 13.6625,-13.6625 0.158333,-3.516667 0.191667,-4.570834 0.191667,-13.470834 0,-8.9 -0.03333,-9.954167 -0.191667,-13.466667 -0.4125,-8.970833 -4.629167,-13.258333 -13.6625,-13.670833 z M 50,67.116667 C 40.545834,67.116667 32.883334,59.454167 32.883334,50 32.883334,40.545834 40.55,32.883334 50,32.883334 c 9.45,0 17.116667,7.6625 17.116667,17.116666 0,9.454167 -7.6625,17.116667 -17.116667,17.116667 z M 67.795834,36.208334 c -2.208333,0 -4,-1.791667 -4,-4 0,-2.208334 1.791667,-4 4,-4 2.208333,0 4,1.791666 4,4 0,2.208333 -1.791667,4 -4,4 z M 61.1125,50 c 0,6.1375 -4.975,11.1125 -11.1125,11.1125 -6.1375,0 -11.1125,-4.975 -11.1125,-11.1125 0,-6.1375 4.975,-11.1125 11.1125,-11.1125 6.1375,0 11.1125,4.975 11.1125,11.1125 z M 79.166667,0 H 20.833334 C 9.3291667,0 0,9.329167 0,20.833334 V 79.166667 C 0,90.670834 9.3291667,100 20.833334,100 H 79.166667 C 90.675001,100 100,90.670834 100,79.166667 V 20.833334 C 100,9.329167 90.675001,0 79.166667,0 Z m 3.966667,63.741667 c -0.55,12.120834 -7.295833,18.8375 -19.3875,19.391667 -3.558334,0.1625 -4.691667,0.2 -13.745834,0.2 -9.054166,0 -10.183333,-0.0375 -13.741666,-0.2 C 24.141667,82.579167 17.425,75.850001 16.866667,63.741667 c -0.1625,-3.554167 -0.2,-4.6875 -0.2,-13.741667 0,-9.05 0.0375,-10.1875 0.2,-13.741666 C 17.425,24.141667 24.15,17.420833 36.258334,16.870833 39.816667,16.704167 40.945834,16.666667 50,16.666667 c 9.054167,0 10.1875,0.0375 13.745834,0.2 12.116667,0.554166 18.845833,7.295833 19.3875,19.3875 0.1625,3.558333 0.2,4.695833 0.2,13.745833 0,9.054167 -0.0375,10.1875 -0.2,13.741667 z"
     id="path4550"
     inkscape:connector-curvature="0"
     style="stroke-width:1" />
</svg>
