<?xml version="1.0" encoding="UTF-8" standalone="no"?>
<svg
   xmlns:dc="http://purl.org/dc/elements/1.1/"
   xmlns:cc="http://creativecommons.org/ns#"
   xmlns:rdf="http://www.w3.org/1999/02/22-rdf-syntax-ns#"
   xmlns:svg="http://www.w3.org/2000/svg"
   xmlns="http://www.w3.org/2000/svg"
   xmlns:sodipodi="http://sodipodi.sourceforge.net/DTD/sodipodi-0.dtd"
   xmlns:inkscape="http://www.inkscape.org/namespaces/inkscape"
   width="100"
   height="100"
   viewBox="0 0 100 100"
   version="1.1"
   id="svg4572"
   sodipodi:docname="li.svg"
   inkscape:version="0.92.4 (5da689c313, 2019-01-14)">
  <metadata
     id="metadata4578">
    <rdf:RDF>
      <cc:Work
         rdf:about="">
        <dc:format>image/svg+xml</dc:format>
        <dc:type
           rdf:resource="http://purl.org/dc/dcmitype/StillImage" />
        <dc:title></dc:title>
      </cc:Work>
    </rdf:RDF>
  </metadata>
  <defs
     id="defs4576" />
  <sodipodi:namedview
     pagecolor="#ffffff"
     bordercolor="#666666"
     borderopacity="1"
     objecttolerance="10"
     gridtolerance="10"
     guidetolerance="10"
     inkscape:pageopacity="0"
     inkscape:pageshadow="2"
     inkscape:window-width="1366"
     inkscape:window-height="705"
     id="namedview4574"
     showgrid="false"
     fit-margin-top="0"
     fit-margin-left="0"
     fit-margin-right="0"
     fit-margin-bottom="0"
     inkscape:zoom="9.8333333"
     inkscape:cx="26.084746"
     inkscape:cy="12.000001"
     inkscape:window-x="-8"
     inkscape:window-y="-8"
     inkscape:window-maximized="1"
     inkscape:current-layer="svg4572" />
  <path
     d="M 79.166667,0 H 20.833334 C 9.3291667,0 0,9.329167 0,20.833334 V 79.166667 C 0,90.670834 9.3291667,100 20.833334,100 H 79.166667 C 90.675001,100 100,90.670834 100,79.166667 V 20.833334 C 100,9.329167 90.675001,0 79.166667,0 Z M 33.333334,79.166667 h -12.5 V 33.333334 h 12.5 z M 27.083334,28.05 c -4.025,0 -7.291667,-3.291666 -7.291667,-7.35 0,-4.058333 3.266667,-7.35 7.291667,-7.35 4.025,0 7.291666,3.291667 7.291666,7.35 0,4.058334 -3.2625,7.35 -7.291666,7.35 z m 56.25,51.116667 h -12.5 v -23.35 c 0,-14.033333 -16.666667,-12.970833 -16.666667,0 v 23.35 h -12.5 V 33.333334 h 12.5 V 40.6875 c 5.816667,-10.775 29.166667,-11.570833 29.166667,10.316667 z"
     id="path4570"
     inkscape:connector-curvature="0"
     style="stroke-width:1" />
</svg>
